<svg xmlns="http://www.w3.org/2000/svg" xmlns:xlink="http://www.w3.org/1999/xlink" version="1.1" x="0px" y="0px" viewBox="0 0 100 125" enable-background="new 0 0 100 100" xml:space="preserve"><path d="M99.657,48.344c0,0-33.648-0.384-37.712-0.544c-3.528-0.132-7.057-0.208-10.585-0.233c-0.003-0.069-0.008-0.139-0.011-0.208  c-0.045-0.9-0.059-1.799-0.033-2.699c0.018-0.899,0.086-1.799,0.197-2.699c0.109-0.899,0.268-1.799,0.41-2.699  c0.144-0.9,0.266-1.799,0.321-2.699c0.055-0.9,0.053-1.8-0.008-2.7c-0.064-0.9-0.195-1.799-0.41-2.699  c-0.108-0.45-0.24-0.9-0.4-1.35c-0.163-0.45-0.342-0.9-0.598-1.35c-0.106-0.186-0.265-0.351-0.463-0.463  c-0.592-0.336-1.343-0.129-1.679,0.463c-0.254,0.45-0.435,0.899-0.597,1.35c-0.16,0.45-0.292,0.899-0.4,1.35  c-0.215,0.899-0.346,1.799-0.409,2.699c-0.063,0.9-0.064,1.8-0.009,2.7c0.055,0.899,0.178,1.799,0.321,2.699  c0.144,0.9,0.301,1.8,0.411,2.699c0.111,0.9,0.18,1.8,0.197,2.699c0.025,0.9,0.011,1.799-0.033,2.699  c-0.003,0.069-0.008,0.139-0.011,0.208c-3.53,0.024-7.058,0.101-10.586,0.233c-4.063,0.161-37.71,0.544-37.71,0.544  s-0.351,3.864,0.248,3.862c0.184,0.004,0.899-0.057,0.899-0.057c4.062-0.174,8.125-0.109,12.187,0.01  c1.016,0.029,2.031,0.062,3.047,0.102c1.016,0.034,2.032,0.078,3.047,0.123l3.047,0.135l3.047,0.155  c4.063,0.207,8.125,0.428,12.188,0.589c3.448,0.129,6.894,0.52,10.341,0.641c-0.001,0.518-0.002,1.035-0.006,1.553  c-0.008,1.801-0.02,3.6,0.003,5.398c0.006,0.854,0.032,1.706,0.054,2.559c-1.38,0.018-2.76,0.056-4.14,0.117  c-1.978,0.093-3.795,0.224-5.774,0.474L37,64.155v2.111l1.05,0.153c1.979,0.251,3.876,0.38,5.854,0.473  c1.431,0.063,2.824,0.102,4.255,0.119c0.04,0.705,0.076,1.41,0.186,2.115c-0.593-0.094-1.408-0.15-2.294-0.15  c-1.828,0-3.314,0.244-3.314,0.543c0,0.3,1.479,0.543,3.307,0.543c0.959,0,1.82-0.066,2.425-0.173  c0.127,0.588,0.298,1.176,0.536,1.763c0.08,0.195,0.237,0.363,0.448,0.448c0.417,0.17,0.892-0.031,1.061-0.448  c0.237-0.587,0.41-1.175,0.538-1.763c0.604,0.106,1.467,0.173,2.425,0.173c1.828,0,3.309-0.243,3.309-0.543  c0-0.299-1.48-0.543-3.309-0.543c-0.886,0-1.689,0.057-2.283,0.15c0.11-0.705,0.167-1.41,0.205-2.115  c1.432-0.017,2.862-0.055,4.294-0.118c1.979-0.093,4.039-0.223,6.016-0.474L63,66.267v-2.111l-1.293-0.151  c-1.977-0.25-3.995-0.382-5.973-0.474c-1.381-0.063-2.78-0.1-4.161-0.117c0.023-0.853,0.038-1.705,0.044-2.559  c0.023-1.799,0.007-3.598,0-5.398c-0.005-0.518-0.01-1.035-0.011-1.553c3.446-0.121,6.894-0.512,10.341-0.641  c4.063-0.161,8.125-0.382,12.188-0.589l3.047-0.155l3.046-0.135c1.016-0.045,2.031-0.089,3.048-0.123  c1.016-0.04,2.029-0.072,3.046-0.102c4.063-0.119,8.125-0.184,12.188-0.01c0,0,0.716,0.061,0.898,0.057  C100.006,52.208,99.657,48.344,99.657,48.344z"/></svg>